<svg xmlns="http://www.w3.org/2000/svg" viewBox="0 0 48 48">
  <defs>
    <linearGradient id="bg" x1="0" y1="0" x2="1" y2="1">
      <stop offset="0%" stop-color="#3b82f6"/>
      <stop offset="100%" stop-color="#8b5cf6"/>
    </linearGradient>
    <linearGradient id="doc" x1="0" y1="0" x2="0" y2="1">
      <stop offset="0%" stop-color="#ffffff"/>
      <stop offset="100%" stop-color="#e2e8f0"/>
    </linearGradient>
  </defs>

  <rect width="48" height="48" rx="11" fill="url(#bg)"/>

  <!-- document sheet with folded corner -->
  <path d="M13 8 h14 l8 8 v24 a4 4 0 0 1 -4 4 h-18 a4 4 0 0 1 -4 -4 v-28 a4 4 0 0 1 4 -4 z" fill="url(#doc)"/>
  <path d="M27 8 l8 8 h-8 z" fill="#c7d2fe"/>

  <!-- bold B monogram -->
  <path d="M17 20 h5 a4 4 0 0 1 0 8 h-5 z" fill="url(#bg)"/>
  <path d="M17 28 h6 a4.5 4.5 0 0 1 0 9 h-6 z" fill="url(#bg)"/>
  <rect x="16" y="18" width="3.6" height="21" rx="1.8" fill="url(#bg)"/>
</svg>